<?xml version="1.0" encoding="UTF-8" standalone="no"?>
<!-- Created with Inkscape (http://www.inkscape.org/) -->

<svg
   version="1.1"
   id="svg99"
   xml:space="preserve"
   width="32"
   height="32"
   viewBox="0 0 32 32"
   xmlns="http://www.w3.org/2000/svg"
   xmlns:svg="http://www.w3.org/2000/svg"><defs
     id="defs103"><clipPath
       clipPathUnits="userSpaceOnUse"
       id="clipPath113"><path
         d="M 0,24 H 24 V 0 H 0 Z"
         id="path111" /></clipPath></defs><g
     id="g105"
     transform="matrix(1.3333333,0,0,-1.3333333,0,32)"><g
       id="g107"><g
         id="g109"
         clip-path="url(#clipPath113)"><g
           id="g115"
           transform="translate(17.0527,17.0679)"><path
             d="M 0,0 C -0.813,0.81 -1.963,1.117 -3.065,0.824 -3.104,0.813 -3.142,0.801 -3.179,0.786 l -7.115,-2.826 c -1.096,-0.425 -1.786,-1.46 -1.758,-2.638 0.028,-1.177 0.766,-2.179 1.954,-2.574 l 2.346,-0.586 0.773,-2.525 c 0.429,-1.039 1.424,-1.705 2.543,-1.705 0.015,0 0.03,0 0.044,10e-4 1.137,0.017 2.131,0.718 2.533,1.785 l 2.67,7.099 c 0.011,0.033 0.022,0.066 0.031,0.1 C 1.132,-1.965 0.817,-0.813 0,0 m 6.947,-5.068 c 0,-6.617 -5.383,-12 -12,-12 -6.617,0 -12,5.383 -12,12 0,6.617 5.383,12 12,12 6.617,0 12,-5.383 12,-12 m -8.357,3.651 c 0.143,-0.144 0.458,-0.535 0.327,-1.118 L -3.73,-9.578 c -0.169,-0.447 -0.573,-0.488 -0.693,-0.49 -0.111,0.012 -0.524,0.026 -0.675,0.379 l -0.908,2.976 c -0.101,0.335 -0.373,0.592 -0.713,0.678 l -2.818,0.702 c -0.467,0.156 -0.513,0.577 -0.516,0.702 -0.003,0.126 0.024,0.548 0.49,0.73 l 7.059,2.803 c 0.576,0.13 0.952,-0.179 1.094,-0.319"
             style="fill:#ffedd5;fill-opacity:1;fill-rule:nonzero;stroke:none"
             id="path117" /></g></g></g></g></svg>
